<svg width="1200" height="630" viewBox="0 0 1200 630" xmlns="http://www.w3.org/2000/svg" font-family="system-ui, -apple-system, sans-serif">
  <defs>
    <linearGradient id="bg" x1="0%" y1="0%" x2="100%" y2="100%">
      <stop offset="0%" style="stop-color:#4f46e5"/>
      <stop offset="100%" style="stop-color:#7c3aed"/>
    </linearGradient>
    <linearGradient id="card1" x1="0%" y1="0%" x2="0%" y2="100%">
      <stop offset="0%" style="stop-color:#ffffff;stop-opacity:0.18"/>
      <stop offset="100%" style="stop-color:#ffffff;stop-opacity:0.07"/>
    </linearGradient>
  </defs>
  <rect width="1200" height="630" fill="url(#bg)"/>
  <!-- grid -->
  <g opacity="0.07" stroke="white" stroke-width="1">
    <line x1="0" y1="126" x2="1200" y2="126"/><line x1="0" y1="252" x2="1200" y2="252"/>
    <line x1="0" y1="378" x2="1200" y2="378"/><line x1="0" y1="504" x2="1200" y2="504"/>
    <line x1="240" y1="0" x2="240" y2="630"/><line x1="480" y1="0" x2="480" y2="630"/>
    <line x1="720" y1="0" x2="720" y2="630"/><line x1="960" y1="0" x2="960" y2="630"/>
  </g>
  <!-- decorative circles -->
  <circle cx="1050" cy="80" r="200" fill="white" opacity="0.03"/>
  <circle cx="150" cy="560" r="160" fill="white" opacity="0.03"/>
  <!-- badge -->
  <rect x="80" y="76" width="196" height="34" rx="17" fill="white" opacity="0.18"/>
  <text x="178" y="99" text-anchor="middle" fill="white" font-size="14" font-weight="600">freeltools.com</text>
  <!-- free pill -->
  <rect x="80" y="128" width="72" height="28" rx="14" fill="#86efac" fill-opacity="0.9"/>
  <text x="116" y="147" text-anchor="middle" fill="#14532d" font-size="13" font-weight="700">FREE</text>
  <!-- headline -->
  <text x="80" y="230" fill="white" font-size="58" font-weight="800" letter-spacing="-1.5">Free Tools for</text>
  <text x="80" y="300" fill="white" font-size="58" font-weight="800" letter-spacing="-1.5">Freelancers</text>
  <rect x="80" y="320" width="140" height="5" rx="2.5" fill="#a5b4fc"/>
  <text x="80" y="374" fill="white" font-size="22" opacity="0.82">Calculators &amp; generators. No login. No fees.</text>
  <!-- stats row -->
  <rect x="80" y="430" width="160" height="80" rx="14" fill="url(#card1)" stroke="white" stroke-opacity="0.15" stroke-width="1"/>
  <text x="160" y="466" text-anchor="middle" fill="white" font-size="32" font-weight="800">31</text>
  <text x="160" y="492" text-anchor="middle" fill="white" font-size="13" opacity="0.7">Free Tools</text>
  <rect x="260" y="430" width="160" height="80" rx="14" fill="url(#card1)" stroke="white" stroke-opacity="0.15" stroke-width="1"/>
  <text x="340" y="466" text-anchor="middle" fill="white" font-size="32" font-weight="800">0</text>
  <text x="340" y="492" text-anchor="middle" fill="white" font-size="13" opacity="0.7">Login Required</text>
  <rect x="440" y="430" width="160" height="80" rx="14" fill="url(#card1)" stroke="white" stroke-opacity="0.15" stroke-width="1"/>
  <text x="520" y="466" text-anchor="middle" fill="white" font-size="32" font-weight="800">100%</text>
  <text x="520" y="492" text-anchor="middle" fill="white" font-size="13" opacity="0.7">Free Forever</text>
  <!-- right side tool cards -->
  <g transform="translate(700,110)">
    <rect x="0" y="0" width="200" height="90" rx="14" fill="url(#card1)" stroke="white" stroke-opacity="0.2" stroke-width="1"/>
    <text x="20" y="30" fill="white" font-size="11" opacity="0.6" font-weight="600">RATE CALCULATOR</text>
    <text x="20" y="62" fill="white" font-size="30" font-weight="800">$95<tspan font-size="16" opacity="0.8">/hr</tspan></text>
    <text x="20" y="82" fill="white" font-size="11" opacity="0.55">Your minimum viable rate</text>
    <rect x="220" y="0" width="200" height="90" rx="14" fill="url(#card1)" stroke="white" stroke-opacity="0.2" stroke-width="1"/>
    <text x="240" y="30" fill="white" font-size="11" opacity="0.6" font-weight="600">PROJECT COST</text>
    <text x="240" y="62" fill="white" font-size="30" font-weight="800">$4,200</text>
    <text x="240" y="82" fill="white" font-size="11" opacity="0.55">With scope buffer</text>
    <rect x="0" y="110" width="200" height="90" rx="14" fill="white" fill-opacity="0.14" stroke="white" stroke-opacity="0.25" stroke-width="1.5"/>
    <text x="20" y="140" fill="white" font-size="11" opacity="0.6" font-weight="600">FIVERR FEES</text>
    <text x="20" y="172" fill="#a5b4fc" font-size="30" font-weight="800">−20%</text>
    <text x="20" y="192" fill="white" font-size="11" opacity="0.55">You keep $800 of $1,000</text>
    <rect x="220" y="110" width="200" height="90" rx="14" fill="url(#card1)" stroke="white" stroke-opacity="0.2" stroke-width="1"/>
    <text x="240" y="140" fill="white" font-size="11" opacity="0.6" font-weight="600">UPWORK FEES</text>
    <text x="240" y="172" fill="#86efac" font-size="30" font-weight="800">−10%</text>
    <text x="240" y="192" fill="white" font-size="11" opacity="0.55">You keep $900 of $1,000</text>
    <rect x="0" y="220" width="420" height="60" rx="14" fill="white" fill-opacity="0.08"/>
    <text x="210" y="248" text-anchor="middle" fill="white" font-size="13" opacity="0.65">Invoice · Proposal · Contract · Tax · Retainer</text>
    <text x="210" y="268" text-anchor="middle" fill="white" font-size="13" opacity="0.65">Scope of Work · Late Fees · Working Days &amp; more</text>
    <rect x="0" y="300" width="420" height="50" rx="12" fill="#4f46e5" stroke="#a5b4fc" stroke-width="1.5"/>
    <text x="210" y="331" text-anchor="middle" fill="white" font-size="15" font-weight="700">freeltools.com — All tools free, always</text>
  </g>
</svg>
